<svg version="1.1" id="Layer_1" xmlns="http://www.w3.org/2000/svg" xmlns:xlink="http://www.w3.org/1999/xlink" x="0px" y="0px"
	 width="100%" viewBox="0 0 225 225" enable-background="new 0 0 225 225" xml:space="preserve">
<path fill="#000000" opacity="1.000000" stroke="none" 
	d="
M135.000000,226.000000 
	C90.000000,226.000000 45.500004,226.000000 1.000006,226.000000 
	C1.000004,151.000000 1.000004,76.000015 1.000002,1.000016 
	C75.999992,1.000011 150.999985,1.000011 225.999969,1.000005 
	C225.999985,75.999985 225.999985,150.999969 226.000000,225.999969 
	C195.833328,226.000000 165.666672,226.000000 135.000000,226.000000 
M185.288986,59.043797 
	C184.542984,58.322906 183.796997,57.602016 182.968002,56.197487 
	C176.989670,50.773563 171.011353,45.349636 164.756424,39.299484 
	C157.530579,35.489864 150.304749,31.680243 142.654755,27.234808 
	C137.434753,26.212011 132.214752,25.189217 126.255280,23.768204 
	C121.983528,23.189663 117.725838,22.397625 113.434593,22.114883 
	C110.970131,21.952509 108.451271,22.615944 105.220451,22.962641 
	C99.463394,23.705235 93.706329,24.447830 87.203949,25.037474 
	C81.893433,26.993534 76.393173,28.553568 71.311890,30.988071 
	C60.723679,36.061008 51.266254,42.727566 44.137096,52.315094 
	C40.449314,57.274551 36.598186,62.112541 32.208923,67.230225 
	C31.887247,68.178795 31.565573,69.127373 31.049570,70.747742 
	C29.254248,74.571274 26.889330,78.238937 25.790855,82.253159 
	C23.924688,89.072792 22.239893,96.057274 21.631252,103.072456 
	C21.057007,109.691200 21.968042,116.438820 22.105612,123.853554 
	C23.374521,129.248657 24.643431,134.643753 25.995890,140.814148 
	C27.838579,145.590866 29.419622,150.492584 31.619915,155.098465 
	C32.988449,157.963211 35.294285,160.380203 37.237457,163.622559 
	C37.805824,164.450287 38.374195,165.278015 39.115383,166.558044 
	C39.308868,166.836456 39.570221,167.016174 39.935337,167.804428 
	C46.620037,173.876511 53.304741,179.948578 60.244732,186.645721 
	C61.788536,187.476837 63.332336,188.307953 65.256050,189.716034 
	C69.172562,191.437012 73.089073,193.157990 77.437752,194.987000 
	C77.437752,194.987000 77.879333,195.045670 78.168655,195.636414 
	C79.448097,196.378632 80.727539,197.120850 82.499550,197.916489 
	C82.499550,197.916489 82.992645,197.868210 83.607956,198.217896 
	C85.435562,198.521118 87.263168,198.824356 89.693558,199.034164 
	C90.096588,199.070236 90.499626,199.106323 91.355499,199.791275 
	C101.900513,200.135086 112.445526,200.478897 123.815765,200.957947 
	C125.738564,200.633682 127.649773,200.178436 129.586105,200.007019 
	C139.874496,199.096191 149.042038,194.985214 157.651199,189.701477 
	C162.823608,186.526993 167.707199,182.761963 172.272720,178.752365 
	C176.822723,174.756439 180.940918,170.237701 184.987823,165.714996 
	C186.659653,163.846603 187.652374,161.370529 189.679047,159.015808 
	C193.804718,155.011261 197.542648,150.998627 198.209656,144.684479 
	C198.738983,139.674088 200.563721,134.800552 202.005692,129.035919 
	C202.326660,120.965843 202.983688,112.888832 202.817444,104.828812 
	C202.741791,101.161438 201.037735,97.527657 200.033066,93.191437 
	C199.706207,90.879150 199.891220,88.333076 198.961044,86.296326 
	C195.517914,78.757278 191.706787,71.386299 188.005432,64.003586 
	C188.005432,64.003586 188.057068,63.975372 187.950333,63.287731 
	C187.129105,62.077457 186.307861,60.867184 185.427719,59.666500 
	C185.427719,59.666500 185.368271,59.661388 185.288986,59.043797 
z"/>
<path fill="#FDFBFB" opacity="1.000000" stroke="none" 
	d="
M201.813263,129.866241 
	C200.563721,134.800552 198.738983,139.674088 198.209656,144.684479 
	C197.542648,150.998627 193.804718,155.011261 188.959244,159.018051 
	C179.120102,163.500732 170.016144,167.931778 159.413818,163.986710 
	C156.389862,162.861511 153.241135,162.071640 149.892807,160.953674 
	C146.470001,157.163666 143.303986,153.547958 140.077072,149.564789 
	C138.653839,143.463333 137.291534,137.729324 136.009949,131.533600 
	C136.164215,124.909821 136.237732,118.747765 136.514847,112.246490 
	C137.708786,104.951805 140.547455,98.876656 145.679123,94.046959 
	C151.633011,88.443436 158.732941,85.524673 167.426971,85.723740 
	C169.530945,85.887733 171.199738,85.898727 172.855499,86.051094 
	C184.359421,87.109711 195.199814,95.476288 198.310791,105.662445 
	C199.664017,110.093269 198.597794,112.261536 194.197144,112.567604 
	C188.688934,112.950706 182.974121,113.648331 178.606232,108.726707 
	C177.345215,107.305824 175.542816,106.277946 173.833862,105.357079 
	C166.263474,101.277840 156.938110,104.334007 156.014496,112.166786 
	C155.240921,118.726921 155.393768,125.396286 155.075134,132.423111 
	C155.313858,134.790146 155.407928,136.810501 155.950943,138.701950 
	C157.894119,145.470322 163.007065,148.188675 171.271790,147.020950 
	C177.235046,146.178406 180.207657,142.468475 180.455399,135.762543 
	C176.968552,135.105698 172.182022,135.582352 170.416855,133.499054 
	C168.501633,131.238663 169.399231,126.594986 169.180878,122.607376 
	C169.425674,119.675499 170.047821,117.625519 173.257095,117.689537 
	C181.729492,117.858543 190.203201,117.961472 198.830017,118.530746 
	C199.203018,122.171867 199.330780,125.384567 199.734268,128.562271 
	C199.799576,129.076614 201.089447,129.435501 201.813263,129.866241 
z"/>
<path fill="#C62430" opacity="1.000000" stroke="none" 
	d="
M166.985779,85.636154 
	C158.732941,85.524673 151.633011,88.443436 145.679123,94.046959 
	C140.547455,98.876656 137.708786,104.951805 136.424103,111.829491 
	C135.533676,108.844681 134.498001,107.791252 132.020767,110.472511 
	C128.093475,114.723267 124.014160,118.833565 119.752396,123.198486 
	C119.392952,124.199944 119.280273,125.006195 119.122635,126.288307 
	C119.095108,131.508392 119.112526,136.252609 119.094986,141.447693 
	C119.042725,144.617218 119.025429,147.335861 118.914352,150.057770 
	C118.820580,150.061020 118.638367,150.012909 118.494385,149.565140 
	C118.350395,139.569229 118.350395,130.021088 118.350395,120.253777 
	C115.208412,120.101807 112.598640,119.975578 110.093788,119.478821 
	C112.517204,118.721603 114.835701,118.334915 117.516312,117.719452 
	C118.109985,113.241577 118.341530,108.992477 118.597954,104.286766 
	C123.193909,104.286766 127.517387,104.599991 131.751007,104.120239 
	C133.273499,103.947708 135.919388,101.635513 135.757278,100.695786 
	C134.972244,96.145538 138.838821,90.701843 133.403854,87.039177 
	C133.163025,86.876877 132.754028,86.936653 132.423645,86.938652 
	C115.309631,87.042259 98.195656,87.150833 81.311417,86.912766 
	C85.360298,86.358986 89.179436,86.151314 93.467094,85.958282 
	C105.698318,85.972923 117.461037,85.972923 130.764389,85.972923 
	C125.973564,81.867371 128.690247,79.678131 131.064651,77.450005 
	C132.987854,75.645279 135.042709,73.976463 136.911880,72.119247 
	C145.333557,63.751446 153.718521,55.346615 162.095993,46.934498 
	C164.009552,45.013027 166.716034,43.375240 165.033020,39.925713 
	C171.011353,45.349636 176.989670,50.773563 183.021515,56.885757 
	C183.839447,58.269817 184.603851,58.965603 185.368271,59.661388 
	C185.368271,59.661388 185.427719,59.666500 185.298370,60.024063 
	C186.131714,61.579540 187.094391,62.777454 188.057068,63.975372 
	C188.057068,63.975372 188.005432,64.003586 188.000473,64.350357 
	C184.923126,68.820786 181.869019,72.958214 178.773499,77.064445 
	C175.216339,81.783089 171.233597,85.363693 164.764664,82.124916 
	C164.518799,82.001816 163.972366,82.479012 163.371078,82.771187 
	C164.690445,83.816895 165.838120,84.726524 166.985779,85.636154 
z"/>
<path fill="#D0202B" opacity="1.000000" stroke="none" 
	d="
M164.894714,39.612598 
	C166.716034,43.375240 164.009552,45.013027 162.095993,46.934498 
	C153.718521,55.346615 145.333557,63.751446 136.911880,72.119247 
	C135.042709,73.976463 132.987854,75.645279 131.064651,77.450005 
	C128.690247,79.678131 125.973564,81.867371 130.764389,85.972923 
	C117.461037,85.972923 105.698318,85.972923 93.472672,85.596931 
	C95.908211,81.745575 98.582253,78.049446 101.745117,74.834145 
	C113.656860,62.724941 125.898071,50.934505 137.609573,38.637714 
	C140.269089,35.845276 141.298935,31.500742 143.078903,27.870621 
	C150.304749,31.680243 157.530579,35.489864 164.894714,39.612598 
z"/>
<path fill="#D6212A" opacity="1.000000" stroke="none" 
	d="
M142.866821,27.552715 
	C141.298935,31.500742 140.269089,35.845276 137.609573,38.637714 
	C125.898071,50.934505 113.656860,62.724941 101.745117,74.834145 
	C98.582253,78.049446 95.908211,81.745575 93.004150,85.582291 
	C89.179436,86.151314 85.360298,86.358986 81.127686,87.273483 
	C80.510185,92.905708 80.306168,97.831116 80.066055,103.156738 
	C78.652534,108.748833 75.222847,103.975868 72.993790,105.003113 
	C72.999046,104.999084 72.996788,105.009750 72.831345,104.764633 
	C72.120728,104.340096 71.575554,104.160675 71.019165,103.993080 
	C71.007950,104.004906 71.009811,103.973366 70.857101,103.749329 
	C70.376930,103.393951 70.049461,103.262604 69.540527,103.105850 
	C69.359062,103.080452 69.001808,102.998772 69.000900,102.999390 
	C69.000000,103.000000 69.001312,102.998177 68.962151,102.736641 
	C68.624115,102.402664 68.325241,102.330223 67.703659,102.123428 
	C65.923508,100.991600 64.466072,99.994133 62.940464,98.604225 
	C63.581516,97.745689 64.290749,97.279594 65.413528,96.901009 
	C70.439804,97.348068 74.018463,95.765350 76.050034,91.425171 
	C78.563469,86.055557 76.795341,81.811607 72.829727,78.124817 
	C78.536888,73.484474 84.164970,69.282478 89.188789,64.452019 
	C99.072578,54.948666 108.921745,45.370052 118.140213,35.235832 
	C121.256821,31.809624 127.166420,30.281502 126.994751,24.166422 
	C132.214752,25.189217 137.434753,26.212011 142.866821,27.552715 
z"/>
<path fill="#DB212A" opacity="1.000000" stroke="none" 
	d="
M126.625015,23.967312 
	C127.166420,30.281502 121.256821,31.809624 118.140213,35.235832 
	C108.921745,45.370052 99.072578,54.948666 89.188789,64.452019 
	C84.164970,69.282478 78.536888,73.484474 72.471466,78.053490 
	C66.225296,76.446648 61.818443,77.760490 59.280106,81.857399 
	C56.724056,85.982895 57.634720,90.179741 62.119678,95.367210 
	C61.785999,96.611610 61.464317,97.487839 60.837513,98.177528 
	C55.896988,94.041145 51.261585,90.091316 46.999496,86.066696 
	C49.289806,83.452354 51.033501,80.755325 53.164425,78.410149 
	C56.360744,74.892448 59.876991,71.667862 63.168842,68.233948 
	C67.134697,64.096939 70.875107,59.736618 74.950104,55.712986 
	C82.649078,48.111065 90.654510,40.815769 98.246765,33.111389 
	C101.213394,30.100946 103.409721,26.331417 105.956894,22.907623 
	C108.451271,22.615944 110.970131,21.952509 113.434593,22.114883 
	C117.725838,22.397625 121.983528,23.189663 126.625015,23.967312 
z"/>
<path fill="#B12130" opacity="1.000000" stroke="none" 
	d="
M150.149612,161.128006 
	C153.241135,162.071640 156.389862,162.861511 159.413818,163.986710 
	C170.016144,167.931778 179.120102,163.500732 188.596695,159.095566 
	C187.652374,161.370529 186.659653,163.846603 184.987823,165.714996 
	C180.940918,170.237701 176.822723,174.756439 172.272720,178.752365 
	C167.707199,182.761963 162.823608,186.526993 157.651199,189.701477 
	C149.042038,194.985214 139.874496,199.096191 129.586105,200.007019 
	C127.649773,200.178436 125.738564,200.633682 123.326797,200.554596 
	C121.266762,199.238358 119.695702,198.325439 117.697929,197.164581 
	C122.568642,192.801834 127.106010,188.972076 131.366837,184.856049 
	C135.740021,180.631424 140.237274,176.430420 143.924606,171.637711 
	C146.357697,168.475220 151.842712,166.800186 150.149612,161.128006 
z"/>
<path fill="#B6212D" opacity="1.000000" stroke="none" 
	d="
M149.892807,160.953674 
	C151.842712,166.800186 146.357697,168.475220 143.924606,171.637711 
	C140.237274,176.430420 135.740021,180.631424 131.366837,184.856049 
	C127.106010,188.972076 122.568642,192.801834 117.697929,197.164581 
	C119.695702,198.325439 121.266762,199.238358 122.914185,200.486969 
	C112.445526,200.478897 101.900513,200.135086 91.164490,199.079987 
	C93.383110,195.542725 95.599968,192.519669 98.244110,189.933487 
	C103.139641,185.145340 108.418449,180.747574 113.287048,175.933777 
	C117.684845,171.585480 121.572128,166.717529 126.007874,162.411819 
	C130.511963,158.039795 135.411575,154.075256 140.137985,149.932266 
	C143.303986,153.547958 146.470001,157.163666 149.892807,160.953674 
z"/>
<path fill="#BB202D" opacity="1.000000" stroke="none" 
	d="
M140.077072,149.564789 
	C135.411575,154.075256 130.511963,158.039795 126.007874,162.411819 
	C121.572128,166.717529 117.684845,171.585480 113.287048,175.933777 
	C108.418449,180.747574 103.139641,185.145340 98.244110,189.933487 
	C95.599968,192.519669 93.383110,195.542725 90.938065,198.755539 
	C90.499626,199.106323 90.096588,199.070236 89.228844,198.766235 
	C86.934494,197.425522 85.358688,194.027802 82.992645,197.868210 
	C82.992645,197.868210 82.499550,197.916489 82.239151,197.511627 
	C80.612282,196.419739 79.245804,195.732712 77.879333,195.045685 
	C77.879333,195.045670 77.437752,194.987000 77.196060,194.649475 
	C76.635437,193.873337 76.316505,193.434738 76.035263,192.640137 
	C78.699699,188.533401 80.955070,184.438263 84.039680,181.112152 
	C88.734116,176.050156 94.818565,172.206848 97.005615,165.103027 
	C101.436684,168.057129 108.991096,167.977234 112.366455,165.008408 
	C114.610977,163.578491 116.489601,162.234207 118.565041,160.647583 
	C118.902336,159.574646 119.042824,158.744034 119.434227,157.629974 
	C119.459473,154.915863 119.233803,152.485199 119.008133,150.054520 
	C119.025429,147.335861 119.042725,144.617218 119.499290,141.448853 
	C123.048470,141.162918 125.258797,140.594727 127.352783,137.465561 
	C129.079803,134.884781 132.987732,133.763428 135.929214,131.995331 
	C137.291534,137.729324 138.653839,143.463333 140.077072,149.564789 
z"/>
<path fill="#BA2330" opacity="1.000000" stroke="none" 
	d="
M167.426971,85.723740 
	C165.838120,84.726524 164.690445,83.816895 163.371078,82.771187 
	C163.972366,82.479012 164.518799,82.001816 164.764664,82.124916 
	C171.233597,85.363693 175.216339,81.783089 178.773499,77.064445 
	C181.869019,72.958214 184.923126,68.820786 188.014740,64.324654 
	C191.706787,71.386299 195.517914,78.757278 198.961044,86.296326 
	C199.891220,88.333076 199.706207,90.879150 200.039124,93.984352 
	C200.044113,95.933304 199.988983,97.092255 200.051163,98.244881 
	C200.342712,103.650047 200.814453,109.052094 200.864578,114.458572 
	C200.875732,115.662415 199.443863,116.879639 198.676392,118.090698 
	C190.203201,117.961472 181.729492,117.858543 173.257095,117.689537 
	C170.047821,117.625519 169.425674,119.675499 168.765106,122.610619 
	C166.808380,123.262299 164.348068,123.178375 164.120041,123.851120 
	C162.915771,127.403877 156.698990,126.949120 157.737930,132.039017 
	C156.870758,132.031784 156.003571,132.024536 155.136398,132.017288 
	C155.393768,125.396286 155.240921,118.726921 156.014496,112.166786 
	C156.938110,104.334007 166.263474,101.277840 173.833862,105.357079 
	C175.542816,106.277946 177.345215,107.305824 178.606232,108.726707 
	C182.974121,113.648331 188.688934,112.950706 194.197144,112.567604 
	C198.597794,112.261536 199.664017,110.093269 198.310791,105.662445 
	C195.199814,95.476288 184.359421,87.109711 172.855499,86.051094 
	C171.199738,85.898727 169.530945,85.887733 167.426971,85.723740 
z"/>
<path fill="#E3232B" opacity="1.000000" stroke="none" 
	d="
M32.820862,67.005417 
	C36.598186,62.112541 40.449314,57.274551 44.137096,52.315094 
	C51.266254,42.727566 60.723679,36.061008 71.311890,30.988071 
	C76.393173,28.553568 81.893433,26.993534 87.416122,25.453154 
	C87.261017,27.802366 87.514099,30.259436 86.408325,31.569742 
	C83.284882,35.270916 79.614578,38.512447 76.140747,41.915695 
	C68.124863,49.768711 60.198158,57.716999 52.025978,65.404144 
	C48.738522,68.496483 44.866291,70.960739 41.338505,73.807877 
	C40.274357,74.666702 39.473576,75.851845 38.300278,76.619873 
	C36.699947,73.902084 35.351494,71.451927 33.943054,68.707970 
	C33.528999,67.944588 33.174934,67.474998 32.820862,67.005417 
z"/>
<path fill="#D6222B" opacity="1.000000" stroke="none" 
	d="
M25.912342,140.038849 
	C24.643431,134.643753 23.374521,129.248657 22.566261,123.455292 
	C29.516598,116.706024 35.941128,110.285896 42.546825,104.057930 
	C43.998585,102.689194 46.094116,102.003281 48.172958,101.196182 
	C50.994465,104.848434 53.536209,108.307426 56.055794,112.199600 
	C56.667542,115.419044 57.301453,118.205322 58.012711,121.325951 
	C58.037788,122.110245 57.985516,122.560188 57.697399,123.001358 
	C57.461559,122.992592 56.989582,122.997459 56.618263,123.003616 
	C54.553242,123.908371 52.538395,124.478760 51.223938,125.764931 
	C46.641769,130.248489 42.411026,135.091370 37.825710,139.571472 
	C35.399708,141.941818 32.517094,143.844833 29.673225,146.091049 
	C28.275185,143.841263 27.093761,141.940048 25.912342,140.038849 
z"/>
<path fill="#E02129" opacity="1.000000" stroke="none" 
	d="
M38.552151,76.887512 
	C39.473576,75.851845 40.274357,74.666702 41.338505,73.807877 
	C44.866291,70.960739 48.738522,68.496483 52.025978,65.404144 
	C60.198158,57.716999 68.124863,49.768711 76.140747,41.915695 
	C79.614578,38.512447 83.284882,35.270916 86.408325,31.569742 
	C87.514099,30.259436 87.261017,27.802366 87.788788,25.529629 
	C93.706329,24.447830 99.463394,23.705235 105.588669,22.935133 
	C103.409721,26.331417 101.213394,30.100946 98.246765,33.111389 
	C90.654510,40.815769 82.649078,48.111065 74.950104,55.712986 
	C70.875107,59.736618 67.134697,64.096939 63.168842,68.233948 
	C59.876991,71.667862 56.360744,74.892448 53.164425,78.410149 
	C51.033501,80.755325 49.289806,83.452354 46.709393,85.922760 
	C43.548035,82.864922 41.050095,79.876213 38.552151,76.887512 
z"/>
<path fill="#C01F2D" opacity="1.000000" stroke="none" 
	d="
M112.000572,165.094025 
	C108.991096,167.977234 101.436684,168.057129 97.005615,165.103027 
	C94.818565,172.206848 88.734116,176.050156 84.039680,181.112152 
	C80.955070,184.438263 78.699699,188.533401 75.674004,192.602524 
	C71.808739,191.660294 68.342438,190.399689 64.876144,189.139069 
	C63.332336,188.307953 61.788536,187.476837 60.119427,185.946533 
	C60.364902,184.031036 60.377029,182.465164 61.165619,181.656067 
	C65.733467,176.969299 70.562683,172.536652 75.110626,167.831619 
	C76.083099,166.825562 76.259727,165.050217 76.823380,163.463669 
	C76.843781,163.298065 76.917290,162.972961 77.214767,162.918213 
	C77.659096,162.508408 77.805954,162.153336 78.084091,161.787659 
	C78.215370,161.777039 78.478127,161.757629 78.798676,161.690216 
	C79.425163,161.079742 79.731117,160.536697 80.397728,159.954315 
	C82.985397,158.375946 85.195274,156.811386 87.443520,155.304031 
	C90.612846,153.179153 93.810593,151.096649 97.003685,149.453217 
	C97.020050,153.256378 97.028900,156.602341 96.778793,160.161957 
	C97.054207,161.251389 97.588593,162.127197 98.413338,163.253082 
	C103.135994,164.033447 107.568283,164.563736 112.000572,165.094025 
z"/>
<path fill="#DD232B" opacity="1.000000" stroke="none" 
	d="
M47.893192,101.002922 
	C46.094116,102.003281 43.998585,102.689194 42.546825,104.057930 
	C35.941128,110.285896 29.516598,116.706024 22.626316,123.093391 
	C21.968042,116.438820 21.057007,109.691200 21.631252,103.072456 
	C22.239893,96.057274 23.924688,89.072792 25.790855,82.253159 
	C26.889330,78.238937 29.254248,74.571274 31.394249,70.485199 
	C31.987179,70.463181 32.235432,70.703697 32.523628,71.287354 
	C35.141247,82.742874 41.146141,92.066566 47.893192,101.002922 
z"/>
<path fill="#D0212C" opacity="1.000000" stroke="none" 
	d="
M25.954115,140.426498 
	C27.093761,141.940048 28.275185,143.841263 29.673225,146.091049 
	C32.517094,143.844833 35.399708,141.941818 37.825710,139.571472 
	C42.411026,135.091370 46.641769,130.248489 51.223938,125.764931 
	C52.538395,124.478760 54.553242,123.908371 56.621880,123.472504 
	C56.985149,131.289062 56.973480,138.642868 56.584171,146.085510 
	C55.807884,147.000259 55.020939,147.854874 55.079395,148.647095 
	C55.304386,151.696274 54.262234,153.555008 51.689732,155.563248 
	C47.382931,158.925354 43.791786,163.204193 39.899445,167.097214 
	C39.570221,167.016174 39.308868,166.836456 39.044029,165.982605 
	C38.374935,164.604172 37.777191,163.801163 37.179443,162.998154 
	C35.294285,160.380203 32.988449,157.963211 31.619915,155.098465 
	C29.419622,150.492584 27.838579,145.590866 25.954115,140.426498 
z"/>
<path fill="#C7202D" opacity="1.000000" stroke="none" 
	d="
M39.917389,167.450821 
	C43.791786,163.204193 47.382931,158.925354 51.689732,155.563248 
	C54.262234,153.555008 55.304386,151.696274 55.079395,148.647095 
	C55.020939,147.854874 55.807884,147.000259 56.597813,146.552399 
	C57.374416,151.941727 57.759731,156.953003 58.387085,162.083923 
	C59.062992,162.478622 59.496864,162.753677 60.073711,163.416840 
	C65.745453,163.746399 71.274223,163.687836 76.802986,163.629272 
	C76.259727,165.050217 76.083099,166.825562 75.110626,167.831619 
	C70.562683,172.536652 65.733467,176.969299 61.165619,181.656067 
	C60.377029,182.465164 60.364902,184.031036 59.991783,185.634003 
	C53.304741,179.948578 46.620037,173.876511 39.917389,167.450821 
z"/>
<path fill="#A81122" opacity="1.000000" stroke="none" 
	d="
M198.830017,118.530746 
	C199.443863,116.879639 200.875732,115.662415 200.864578,114.458572 
	C200.814453,109.052094 200.342712,103.650047 200.051163,98.244881 
	C199.988983,97.092255 200.044113,95.933304 200.058746,94.327957 
	C201.037735,97.527657 202.741791,101.161438 202.817444,104.828812 
	C202.983688,112.888832 202.326660,120.965843 201.909485,129.451080 
	C201.089447,129.435501 199.799576,129.076614 199.734268,128.562271 
	C199.330780,125.384567 199.203018,122.171867 198.830017,118.530746 
z"/>
<path fill="#BB212E" opacity="1.000000" stroke="none" 
	d="
M65.066101,189.427551 
	C68.342438,190.399689 71.808739,191.660294 75.636307,192.958511 
	C76.316505,193.434738 76.635437,193.873337 76.979980,194.595459 
	C73.089073,193.157990 69.172562,191.437012 65.066101,189.427551 
z"/>
<path fill="#BB212E" opacity="1.000000" stroke="none" 
	d="
M83.300301,198.043060 
	C85.358688,194.027802 86.934494,197.425522 88.927452,198.812958 
	C87.263168,198.824356 85.435562,198.521118 83.300301,198.043060 
z"/>
<path fill="#BB212E" opacity="1.000000" stroke="none" 
	d="
M78.023987,195.341049 
	C79.245804,195.732712 80.612282,196.419739 81.992867,197.484924 
	C80.727539,197.120850 79.448097,196.378632 78.023987,195.341049 
z"/>
<path fill="#BA2330" opacity="1.000000" stroke="none" 
	d="
M188.003693,63.631550 
	C187.094391,62.777454 186.131714,61.579540 185.327820,60.019264 
	C186.307861,60.867184 187.129105,62.077457 188.003693,63.631550 
z"/>
<path fill="#FCF7F7" opacity="1.000000" stroke="none" 
	d="
M32.483685,70.944206 
	C32.235432,70.703697 31.987179,70.463181 31.491411,70.149307 
	C31.565573,69.127373 31.887247,68.178795 32.514893,67.117821 
	C33.174934,67.474998 33.528999,67.944588 33.612244,68.962677 
	C33.055504,69.988861 32.769592,70.466530 32.483685,70.944206 
z"/>
<path fill="#C7202D" opacity="1.000000" stroke="none" 
	d="
M37.208450,163.310364 
	C37.777191,163.801163 38.374935,164.604172 38.957619,165.756470 
	C38.374195,165.278015 37.805824,164.450287 37.208450,163.310364 
z"/>
<path fill="#BA2330" opacity="1.000000" stroke="none" 
	d="
M185.328629,59.352592 
	C184.603851,58.965603 183.839447,58.269817 183.063019,57.227577 
	C183.796997,57.602016 184.542984,58.322906 185.328629,59.352592 
z"/>
<path fill="#B5232F" opacity="1.000000" stroke="none" 
	d="
M155.075134,132.423111 
	C156.003571,132.024536 156.870758,132.031784 157.737930,132.039017 
	C156.698990,126.949120 162.915771,127.403877 164.120041,123.851120 
	C164.348068,123.178375 166.808380,123.262299 168.654465,122.993835 
	C169.399231,126.594986 168.501633,131.238663 170.416855,133.499054 
	C172.182022,135.582352 176.968552,135.105698 180.455399,135.762543 
	C180.207657,142.468475 177.235046,146.178406 171.271790,147.020950 
	C163.007065,148.188675 157.894119,145.470322 155.950943,138.701950 
	C155.407928,136.810501 155.313858,134.790146 155.075134,132.423111 
z"/>
<path fill="#C01F2D" opacity="1.000000" stroke="none" 
	d="
M136.009949,131.533600 
	C132.987732,133.763428 129.079803,134.884781 127.352783,137.465561 
	C125.258797,140.594727 123.048470,141.162918 119.534256,140.998001 
	C119.112526,136.252609 119.095108,131.508392 119.362000,126.103241 
	C119.763924,124.629295 119.881546,123.816292 119.999161,123.003281 
	C124.014160,118.833565 128.093475,114.723267 132.020767,110.472511 
	C134.498001,107.791252 135.533676,108.844681 136.220490,112.168716 
	C136.237732,118.747765 136.164215,124.909821 136.009949,131.533600 
z"/>
<path fill="#FEFEFD" opacity="1.000000" stroke="none" 
	d="
M80.102142,102.756516 
	C80.306168,97.831116 80.510185,92.905708 80.897942,87.619591 
	C98.195656,87.150833 115.309631,87.042259 132.423645,86.938652 
	C132.754028,86.936653 133.163025,86.876877 133.403854,87.039177 
	C138.838821,90.701843 134.972244,96.145538 135.757278,100.695786 
	C135.919388,101.635513 133.273499,103.947708 131.751007,104.120239 
	C127.517387,104.599991 123.193909,104.286766 118.597954,104.286766 
	C118.341530,108.992477 118.109985,113.241577 117.332710,117.359871 
	C110.508987,116.474892 104.230995,115.720726 97.974533,114.992157 
	C97.996063,115.017769 98.032753,115.073738 98.003067,114.609833 
	C97.973381,111.027634 97.973381,107.909340 97.973381,104.264526 
	C95.061447,104.264526 92.591850,104.451691 90.162392,104.219215 
	C86.793167,103.896812 83.454117,103.259186 80.102142,102.756516 
z"/>
<path fill="#FEFDFD" opacity="1.000000" stroke="none" 
	d="
M112.366455,165.008408 
	C107.568283,164.563736 103.135994,164.033447 98.456573,162.868866 
	C98.055183,161.477905 97.900932,160.721252 97.821503,159.503662 
	C97.896332,145.468262 97.896332,131.893784 97.896332,117.880089 
	C102.253525,118.589661 106.121193,119.219505 109.988861,119.849358 
	C112.598640,119.975578 115.208412,120.101807 118.350395,120.253777 
	C118.350395,130.021088 118.350395,139.569229 118.376129,149.974564 
	C118.482056,151.955704 118.562256,153.079651 118.499435,154.596558 
	C118.360352,156.956314 118.364296,158.923111 118.368240,160.889908 
	C116.489601,162.234207 114.610977,163.578491 112.366455,165.008408 
z"/>
<path fill="#C11325" opacity="1.000000" stroke="none" 
	d="
M110.093788,119.478821 
	C106.121193,119.219505 102.253525,118.589661 97.896332,117.880089 
	C97.896332,131.893784 97.896332,145.468262 97.644249,159.500671 
	C97.392166,159.958588 97.037750,159.948318 97.037750,159.948318 
	C97.028900,156.602341 97.020050,153.256378 97.010818,148.985016 
	C97.012566,139.822510 97.210030,131.577560 96.880836,123.353668 
	C96.797478,121.271286 95.035164,119.256104 94.466995,117.192322 
	C96.995934,117.944099 98.130035,117.364830 97.953003,114.966553 
	C104.230995,115.720726 110.508987,116.474892 116.970581,117.588646 
	C114.835701,118.334915 112.517204,118.721603 110.093788,119.478821 
z"/>
<path fill="#B91322" opacity="1.000000" stroke="none" 
	d="
M118.642448,154.203598 
	C118.562256,153.079651 118.482056,151.955704 118.520111,150.422333 
	C118.638367,150.012909 118.820580,150.061020 118.914360,150.057770 
	C119.233803,152.485199 119.459473,154.915863 119.392929,157.314392 
	C118.947952,156.256042 118.795197,155.229813 118.642448,154.203598 
z"/>
<path fill="#B91322" opacity="1.000000" stroke="none" 
	d="
M119.752403,123.198486 
	C119.881546,123.816292 119.763924,124.629295 119.406944,125.627380 
	C119.280273,125.006195 119.392952,124.199944 119.752403,123.198486 
z"/>
<path fill="#FEFEFD" opacity="1.000000" stroke="none" 
	d="
M97.974533,114.992157 
	C98.130035,117.364830 96.995934,117.944099 94.076279,117.063492 
	C92.760216,116.751640 92.257515,116.550896 91.636787,116.246796 
	C91.324585,116.047745 91.120018,116.012825 90.502602,116.045120 
	C89.328880,115.859383 88.557625,115.667213 87.625778,115.326851 
	C87.034966,115.101677 86.604744,115.024704 85.780807,114.945671 
	C83.307877,114.977570 81.228638,115.011513 78.954575,115.263992 
	C78.663109,115.652161 78.566467,115.821793 78.309540,116.369522 
	C78.208946,130.428436 78.268623,144.109268 78.468521,158.219940 
	C78.458191,159.517838 78.307648,160.385895 78.107895,161.338333 
	C78.058693,161.422729 77.952812,161.798264 77.952820,161.798264 
	C77.805954,162.153336 77.659096,162.508408 76.752686,162.917847 
	C70.639000,162.991058 65.284874,163.009903 59.930740,163.028732 
	C59.496864,162.753677 59.062992,162.478622 58.374916,161.618011 
	C58.058220,148.358337 57.995731,135.684235 57.933243,123.010124 
	C57.985516,122.560188 58.037788,122.110245 58.077942,120.916626 
	C58.037434,118.793678 58.009045,117.414421 57.958206,115.854507 
	C57.866951,115.430809 57.730381,115.235023 57.364952,114.755173 
	C56.828556,113.538017 56.453255,112.652222 56.077950,111.766418 
	C53.536209,108.307426 50.994465,104.848434 48.172958,101.196182 
	C41.146141,92.066566 35.141247,82.742874 32.523628,71.287354 
	C32.769592,70.466530 33.055504,69.988861 33.672226,69.256477 
	C35.351494,71.451927 36.699947,73.902084 38.300278,76.619873 
	C41.050095,79.876213 43.548035,82.864922 46.336082,85.997559 
	C51.261585,90.091316 55.896988,94.041145 61.013763,98.365425 
	C61.999641,98.825462 62.504139,98.911057 63.008640,98.996658 
	C64.466072,99.994133 65.923508,100.991600 67.824554,102.295898 
	C68.472878,102.808060 68.717262,102.939880 69.001312,102.998177 
	C69.001312,102.998177 69.000000,103.000000 69.102051,103.224075 
	C69.403488,103.728424 69.669754,103.911377 70.254913,104.003571 
	C70.674553,103.997879 70.842178,103.985626 71.009811,103.973366 
	C71.009811,103.973366 71.007950,104.004906 71.212799,104.211601 
	C71.944031,104.615448 72.470406,104.812599 72.996788,105.009750 
	C72.996788,105.009750 72.999046,104.999084 73.249840,105.241005 
	C81.678009,108.679863 89.855377,111.876801 98.032753,115.073738 
	C98.032753,115.073738 97.996063,115.017769 97.974533,114.992157 
z"/>
<path fill="#FCF8F8" opacity="1.000000" stroke="none" 
	d="
M62.131676,94.999046 
	C57.634720,90.179741 56.724056,85.982895 59.280106,81.857399 
	C61.818443,77.760490 66.225296,76.446648 72.119232,78.207733 
	C76.795341,81.811607 78.563469,86.055557 76.050034,91.425171 
	C74.018463,95.765350 70.439804,97.348068 65.352715,96.581985 
	C63.962795,95.783318 63.047234,95.391182 62.131676,94.999046 
z"/>
<path fill="#CD323B" opacity="1.000000" stroke="none" 
	d="
M98.003067,114.609833 
	C89.855377,111.876801 81.678009,108.679863 73.244583,105.245026 
	C75.222847,103.975868 78.652534,108.748833 80.066055,103.156738 
	C83.454117,103.259186 86.793167,103.896812 90.162392,104.219215 
	C92.591850,104.451691 95.061447,104.264526 97.973381,104.264526 
	C97.973381,107.909340 97.973381,111.027634 98.003067,114.609833 
z"/>
<path fill="#FCF7F7" opacity="1.000000" stroke="none" 
	d="
M62.119678,95.367210 
	C63.047234,95.391182 63.962795,95.783318 64.939163,96.494476 
	C64.290749,97.279594 63.581516,97.745689 62.940464,98.604225 
	C62.504139,98.911057 61.999641,98.825462 61.318886,98.551971 
	C61.464317,97.487839 61.785999,96.611610 62.119678,95.367210 
z"/>
<path fill="#CD323B" opacity="1.000000" stroke="none" 
	d="
M72.831345,104.764633 
	C72.470406,104.812599 71.944031,104.615448 71.224014,104.199776 
	C71.575554,104.160675 72.120728,104.340096 72.831345,104.764633 
z"/>
<path fill="#CD323B" opacity="1.000000" stroke="none" 
	d="
M70.857101,103.749329 
	C70.842178,103.985626 70.674553,103.997879 70.175758,103.790039 
	C69.844582,103.569954 69.721992,103.131248 69.721992,103.131256 
	C70.049461,103.262604 70.376930,103.393951 70.857101,103.749329 
z"/>
<path fill="#FCF7F7" opacity="1.000000" stroke="none" 
	d="
M69.540527,103.105850 
	C69.721992,103.131248 69.844582,103.569954 69.923737,103.783478 
	C69.669754,103.911377 69.403488,103.728424 69.102951,103.223465 
	C69.001808,102.998772 69.359062,103.080452 69.540527,103.105850 
z"/>
<path fill="#FCF7F7" opacity="1.000000" stroke="none" 
	d="
M68.962151,102.736641 
	C68.717262,102.939880 68.472878,102.808060 68.147263,102.430252 
	C68.325241,102.330223 68.624115,102.402664 68.962151,102.736641 
z"/>
<path fill="#C62430" opacity="1.000000" stroke="none" 
	d="
M118.499420,154.596558 
	C118.795197,155.229813 118.947952,156.256042 119.142014,157.597839 
	C119.042824,158.744034 118.902336,159.574646 118.565048,160.647583 
	C118.364296,158.923111 118.360352,156.956314 118.499420,154.596558 
z"/>
<path fill="#BB0015" opacity="1.000000" stroke="none" 
	d="
M57.697403,123.001358 
	C57.995731,135.684235 58.058220,148.358337 58.132877,161.498352 
	C57.759731,156.953003 57.374416,151.941727 56.975456,146.463577 
	C56.973480,138.642868 56.985149,131.289062 56.993198,123.466354 
	C56.989582,122.997459 57.461559,122.992592 57.697403,123.001358 
z"/>
<path fill="#D0212C" opacity="1.000000" stroke="none" 
	d="
M57.980656,116.035156 
	C58.009045,117.414421 58.037434,118.793678 58.000591,120.582268 
	C57.301453,118.205322 56.667542,115.419044 56.055794,112.199600 
	C56.453255,112.652222 56.828556,113.538017 57.333023,114.948166 
	C57.550652,115.737762 57.723473,115.925316 57.980656,116.035156 
z"/>
<path fill="#C8202C" opacity="1.000000" stroke="none" 
	d="
M87.786362,115.475044 
	C88.557625,115.667213 89.328880,115.859383 90.617767,116.232681 
	C91.288757,116.647141 91.442131,116.880463 91.595490,117.113785 
	C91.648598,116.859238 91.701706,116.604698 91.754822,116.350151 
	C92.257515,116.550896 92.760216,116.751640 93.653625,117.081207 
	C95.035164,119.256104 96.797478,121.271286 96.880836,123.353668 
	C97.210030,131.577560 97.012566,139.822510 97.003311,148.527832 
	C93.810593,151.096649 90.612846,153.179153 87.443520,155.304031 
	C85.195274,156.811386 82.985397,158.375946 80.384659,159.608795 
	C79.638062,158.531570 79.265190,157.760529 78.772186,156.534271 
	C78.732445,145.395920 78.812843,134.712769 79.136238,123.884468 
	C79.220161,123.150703 79.061096,122.562088 78.782166,121.615158 
	C78.742401,120.514771 78.822495,119.772697 79.174545,118.838760 
	C79.347473,117.446419 79.248436,116.245934 79.149406,115.045456 
	C81.228638,115.011513 83.307877,114.977570 85.942947,115.152435 
	C86.746948,115.692734 86.995117,116.024200 87.243286,116.355675 
	C87.424309,116.062134 87.605339,115.768585 87.786362,115.475044 
z"/>
<path fill="#FCF7F7" opacity="1.000000" stroke="none" 
	d="
M60.073715,163.416840 
	C65.284874,163.009903 70.639000,162.991058 76.455215,162.972595 
	C76.917290,162.972961 76.843781,163.298065 76.823380,163.463669 
	C71.274223,163.687836 65.745453,163.746399 60.073715,163.416840 
z"/>
<path fill="#BB212E" opacity="1.000000" stroke="none" 
	d="
M96.778793,160.161957 
	C97.037750,159.948318 97.392166,159.958588 97.569427,159.961578 
	C97.900932,160.721252 98.055183,161.477905 98.166199,162.618774 
	C97.588593,162.127197 97.054207,161.251389 96.778793,160.161957 
z"/>
<path fill="#C60B1E" opacity="1.000000" stroke="none" 
	d="
M78.892319,156.989487 
	C79.265190,157.760529 79.638062,158.531570 80.024002,159.648132 
	C79.731117,160.536697 79.425163,161.079742 78.755386,161.540924 
	C78.391563,161.459045 78.157097,161.253937 78.157097,161.253937 
	C78.307648,160.385895 78.458191,159.517838 78.625702,158.031342 
	C78.642670,157.412872 78.892319,156.989487 78.892319,156.989487 
z"/>
<path fill="#FCF7F7" opacity="1.000000" stroke="none" 
	d="
M78.107895,161.338333 
	C78.157097,161.253937 78.391563,161.459045 78.434845,161.608337 
	C78.478127,161.757629 78.215370,161.777039 78.084091,161.787659 
	C77.952812,161.798264 78.058693,161.422729 78.107895,161.338333 
z"/>
<path fill="#FCF7F7" opacity="1.000000" stroke="none" 
	d="
M78.772186,156.534271 
	C78.892319,156.989487 78.642670,157.412872 78.485489,157.601486 
	C78.268623,144.109268 78.208946,130.428436 78.407738,116.742783 
	C78.744995,117.502182 78.823784,118.266403 78.902573,119.030624 
	C78.822495,119.772697 78.742401,120.514771 78.685966,121.952995 
	C78.770828,123.109299 78.832031,123.569458 78.893234,124.029610 
	C78.812843,134.712769 78.732445,145.395920 78.772186,156.534271 
z"/>
<path fill="#FCF7F7" opacity="1.000000" stroke="none" 
	d="
M87.625778,115.326851 
	C87.605339,115.768585 87.424309,116.062134 87.243286,116.355675 
	C86.995117,116.024200 86.746948,115.692734 86.336647,115.154495 
	C86.604744,115.024704 87.034966,115.101677 87.625778,115.326851 
z"/>
<path fill="#C60B1E" opacity="1.000000" stroke="none" 
	d="
M79.174545,118.838760 
	C78.823784,118.266403 78.744995,117.502182 78.568008,116.364700 
	C78.566467,115.821793 78.663109,115.652161 78.954575,115.263992 
	C79.248436,116.245934 79.347473,117.446419 79.174545,118.838760 
z"/>
<path fill="#FCF7F7" opacity="1.000000" stroke="none" 
	d="
M91.636780,116.246796 
	C91.701706,116.604698 91.648598,116.859238 91.595490,117.113785 
	C91.442131,116.880463 91.288757,116.647141 91.020226,116.226257 
	C91.120018,116.012825 91.324585,116.047745 91.636780,116.246796 
z"/>
<path fill="#FCF7F7" opacity="1.000000" stroke="none" 
	d="
M57.958206,115.854507 
	C57.723473,115.925316 57.550652,115.737762 57.494118,115.279510 
	C57.730381,115.235023 57.866951,115.430809 57.958206,115.854507 
z"/>
<path fill="#C60B1E" opacity="1.000000" stroke="none" 
	d="
M79.136230,123.884468 
	C78.832031,123.569458 78.770828,123.109299 78.805817,122.311310 
	C79.061096,122.562088 79.220161,123.150703 79.136230,123.884468 
z"/>
</svg>